<svg xmlns="http://www.w3.org/2000/svg" width="128" height="128" viewBox="0 0 128 128">
  <title>INSTANT FOOD</title>
  <g>
    <path d="M107.569,93.782l-9.775-63.9H101.9a1.749,1.749,0,0,0,1.75-1.75V12.8a1.749,1.749,0,0,0-1.75-1.75H26.1a1.749,1.749,0,0,0-1.75,1.75V28.132a1.749,1.749,0,0,0,1.75,1.75h4.108l-9.774,63.9A20.119,20.119,0,0,0,40.315,116.94H87.3C98.7,117.694,109.549,106.713,107.569,93.782ZM84.7,26.382V14.55h5.977V26.382Zm-9.475,0V14.55H81.2V26.382Zm-9.476,0V14.55h5.976V26.382Zm-9.476,0V14.55H62.25V26.382Zm-9.475,0V14.55h5.975V26.382Zm-9.477,0V14.55H43.3V26.382Zm62.831,0H94.178V14.55h5.975ZM27.847,14.55h5.975V26.382H27.847ZM23.89,94.311l9.855-64.429H93.5C81.768,75.1,78.182,103.788,83.017,113.44h-42.7A16.619,16.619,0,0,1,23.89,94.311Zm63.8,19.129h-.349c-8.546-7.831,3.938-60.026,6.671-71.256V83.177a1.75,1.75,0,1,0,3.5,0V51.143l6.6,43.168A16.62,16.62,0,0,1,87.685,113.44Z"/>
    <path d="M81.6,59.231l-1.8-15.06-.329-6.466a1.752,1.752,0,0,0-2.589-1.446l-11.451,6.27a77.952,77.952,0,0,0-13.161,0l-11.451-6.27A1.752,1.752,0,0,0,38.235,37.7l-.343,6.469L36.1,59.233c0,.039-.006.076-.008.114a11.68,11.68,0,0,0,3.537,8.7c4.221,4.451,11.584,7.216,19.214,7.216s14.987-2.761,19.212-7.206a11.723,11.723,0,0,0,3.555-8.709C81.612,59.31,81.608,59.272,81.6,59.231Zm-6.082,6.418c-3.586,3.773-9.974,6.117-16.674,6.117-6.6,0-13.146-2.405-16.675-6.124a8.458,8.458,0,0,1-2.584-6.056l1.786-15.061c0-.038.007-.075.009-.113l.2-3.747c9.91,5.308,9.523,5.48,10.479,5.4a74.642,74.642,0,0,1,13.586,0c.984.084.737-.18,10.473-5.393l.19,3.74c0,.04.006.079.011.119l1.8,15.058A8.484,8.484,0,0,1,75.521,65.649Z"/>
    <path d="M76.208,81.256H31.3a1.749,1.749,0,0,0-1.75,1.75v21a1.749,1.749,0,0,0,1.75,1.75h44.9a1.749,1.749,0,0,0,1.75-1.75v-21A1.749,1.749,0,0,0,76.208,81.256Zm-1.75,21h-41.4v-17.5h41.4Z"/>
    <path d="M39.072,90.561H58.853a1.75,1.75,0,1,0,0-3.5H39.072a1.75,1.75,0,0,0,0,3.5Z"/>
    <path d="M39.072,98.757H68.609a1.75,1.75,0,0,0,0-3.5H39.072a1.75,1.75,0,0,0,0,3.5Z"/>
  </g>
</svg>
